<svg xmlns="http://www.w3.org/2000/svg" width="600" height="450" viewBox="0 0 600 450"><clipPath id="k7"><rect width="600" height="450" rx="20"/></clipPath><g clip-path="url(#k7)"><rect width="600" height="450" fill="#D9EAF6"/><rect x="0" y="400" width="600" height="50" fill="#6FA96B"/><line x1="60" y1="252" x2="540" y2="252" stroke="#888" stroke-width="3" stroke-dasharray="12 10"/><path d="M120 330 L100 400 M480 330 L500 400" stroke="#555" stroke-width="10" stroke-linecap="round"/><path d="M110 330 Q 300 330 490 330" stroke="#222" stroke-width="8" fill="none"/><rect x="98" y="322" width="24" height="16" rx="4" fill="#555"/><rect x="478" y="322" width="24" height="16" rx="4" fill="#555"/><g transform="translate(300 290) rotate(0) scale(0.9)"><path d="M0 -50 L-14 0 M0 -50 L14 0" stroke="#44546A" stroke-width="12" stroke-linecap="round" stroke-linejoin="round" fill="none"/><path d="M0 -92 L-24 -140 M0 -92 L24 -140" stroke="#E9B98E" stroke-width="10" stroke-linecap="round" fill="none"/><rect x="-15" y="-104" width="30" height="58" rx="12" fill="#2E75B6"/><circle cx="0" cy="-122" r="18" fill="#E9B98E"/></g><line x1="390" y1="150" x2="390" y2="250" stroke="#CF4B39" stroke-width="6" stroke-linecap="round"/><path d="M390 250 L382.2 233.8 L397.8 233.8 Z" fill="#CF4B39"/></g><rect width="600" height="450" rx="20" fill="none" stroke="#C3CAD1" stroke-width="3"/></svg>